
        <svg xmlns="http://www.w3.org/2000/svg" xmlns:xlink="http://www.w3.org/1999/xlink" version="1.1" width="3171.4285714285716" 
        height="1598.1591994147889" viewBox="0 0 3171.4285714285716 1598.1591994147889">
			
			<g transform="scale(8.571428571428571) translate(10, 10)">
				<defs id="SvgjsDefs1632"></defs><g id="SvgjsG1633" featureKey="UyNsn2-0" transform="matrix(11.872457622951542,0,0,11.872457622951542,0.7123524392585718,-71.23470044787761)" fill="#252445"><path d="M9.66 15.440000000000001 c-1.26 0.82 -1.88 1.06 -2.74 1.06 c-0.6 0 -1.16 -0.16 -1.7 -0.48 c-1.06 -0.64 -1.78 -1.8 -1.78 -3 c0 -0.64 0.16 -1.24 0.48 -1.78 c0.62 -1.08 1.8 -1.72 3 -1.72 c0.76 0 1.44 0.22 2.02 0.64 c0.1 0.06 0.22 0.14 0.36 0.28 l0.3 0.22 l1.34 -1.58 l-0.22 -0.22 c-0.14 -0.14 -0.32 -0.26 -0.54 -0.4 c-0.94 -0.72 -2.04 -1.08 -3.26 -1.08 c-1.5 0 -2.88 0.58 -3.98 1.64 c-1.06 1.12 -1.66 2.5 -1.66 4 s0.6 2.92 1.66 3.98 s2.48 1.66 3.98 1.66 c1.08 0 2.08 -0.3 3.02 -0.9 l-0.4 -0.6 c-0.82 0.54 -1.68 0.8 -2.62 0.8 c-1.3 0 -2.54 -0.52 -3.48 -1.46 s-1.44 -2.18 -1.44 -3.48 s0.5 -2.52 1.44 -3.46 c0.94 -0.96 2.18 -1.46 3.48 -1.46 c0.98 0 1.92 0.3 2.86 0.92 l0.16 0.14 l-0.44 0.5 c-0.06 -0.02 -0.1 -0.04 -0.14 -0.08 c-0.74 -0.5 -1.56 -0.76 -2.44 -0.76 c-0.78 0 -1.48 0.18 -2.1 0.54 c-1.26 0.74 -2.1 2.2 -2.1 3.66 c0 0.7 0.2 1.4 0.58 2.06 c0.78 1.34 2.2 2.16 3.62 2.16 c0.94 0 1.7 -0.28 2.84 -1 l1.12 1.66 c-1.46 0.96 -2.6 1.36 -3.96 1.36 c-1.12 0 -2.16 -0.28 -3.12 -0.84 c-1.94 -1.12 -3.14 -3.16 -3.14 -5.4 c0 -1.12 0.28 -2.16 0.84 -3.14 c1.12 -1.92 3.18 -3.12 5.42 -3.12 c1.58 0 3.08 0.58 4.22 1.64 l0.12 0.1 l0.16 0.16 l0.5 -0.52 l-0.28 -0.28 c-1.28 -1.14 -2.96 -1.8 -4.72 -1.8 c-1.26 0 -2.42 0.3 -3.48 0.92 c-2.12 1.22 -3.5 3.56 -3.5 6.04 c0 1.22 0.32 2.38 0.96 3.46 c1.26 2.16 3.52 3.52 6.02 3.52 c1.58 0 2.9 -0.5 4.68 -1.72 l0.28 -0.18 l-1.9 -2.86 z M17.02 19.3 l-0.36 0 l-0.16 -0.54 l-2.92 -9.38 l-0.8 -2.68 l0.62 0 l3.12 10.16 l0.32 1.08 l0.12 0 l0.38 -0.94 l-0.38 -1.16 l-3.02 -9.84 l-2.14 0 l4.32 14 l1.38 0 l1.82 -4.34 l0.38 -0.92 l0.52 -1.3 l-0.38 -0.9 l-0.54 1.28 l-0.38 0.92 z M14.58 6 l3.1 10.2 l2.2 -5.26 l3.96 9.08 l0.78 0 l-4.74 -10.9 l-2.12 4.88 l-2.42 -8 l-0.76 0 z M24.740000000000002 12.18 l1.68 -5.48 l2.04 0 l-0.18 0.58 l-2.04 6.68 l-1.16 3.78 l-4.92 -11.36 l-0.52 0 l-2.12 4.92 l0.32 1.06 l2.06 -4.76 l0.64 1.46 l4.48 10.38 l0.18 0.4 l4.22 -13.84 l-3.54 0 l-1.56 5.18 z M24.86 13.92 l-0.42 -1 l-2.84 -6.54 l-0.78 0 l4.16 9.6 l2.68 -8.74 l-0.76 0 z"></path></g>
			</g>
		</svg>
	