
        <svg xmlns="http://www.w3.org/2000/svg" xmlns:xlink="http://www.w3.org/1999/xlink" version="1.1" width="3171.4285714285716" 
        height="792.4053397000647" viewBox="0 0 3171.4285714285716 792.4053397000647">
			
			<g transform="scale(8.571428571428571) translate(10, 10)">
				<defs id="SvgjsDefs3075"></defs><g id="SvgjsG3076" featureKey="nameFeature-0" transform="matrix(1.896525679321168,0,0,1.896525679321168,9.043339153867569e-7,-14.868757997929148)" fill="#ffffff"><path d="M9.92 17.88 c2.72 -2.44 5.44 -4 9.16 -4 c1.72 0.12 2.84 1.2 2.84 2.96 c0 0.28 -0.04 1.16 -0.48 1.16 c-0.72 0 -0.6 -1.52 -0.96 -1.92 c-0.48 -0.52 -1.24 -0.64 -1.92 -0.64 c-1.72 0 -3.28 1.72 -4.24 2.88 c-0.16 0.16 -0.76 0.92 -0.88 1.08 c-0.24 0.32 -1.04 1.44 -1.12 1.56 l-1.92 3 l-1.72 3.12 l-1.16 2.48 l-1 2.48 c-0.04 0.16 -0.44 1.36 -0.56 1.76 c-0.56 1.8 -0.92 3.72 -0.92 5.64 c0 1.32 0.24 3.2 1.92 3.2 s3.32 -1.56 4.48 -2.72 l1.44 -1.48 l1.84 -2.16 l4.84 -6.36 c0.08 -0.12 0.36 -0.12 0.48 -0.12 c0.32 0 0.44 0.2 0.44 0.48 c0 0.16 0 0.24 -0.08 0.36 l-4.08 5.48 l-2.48 2.92 l-1.64 1.72 c-0.08 0.08 -0.64 0.56 -0.76 0.68 c-1.16 1.04 -2.64 2.24 -4.28 2.4 c-4.24 0 -7.16 -1.76 -7.16 -6.36 c0 -1.4 0.24 -2.8 0.72 -4.12 l0.8 -2.32 l1.12 -2.64 l1.12 -2.28 l1.36 -2.32 l1.4 -2.08 c0.92 -1.4 2.16 -2.68 3.4 -3.84 z M24.851999999999997 23.28 c0.32 0.16 0.6 0.2 0.92 0.32 c0.16 0.08 0.92 0.36 1.08 0.4 c0.2 0.12 0.36 0.28 0.36 0.48 c0 0.12 -0.04 0.24 -0.12 0.32 l-0.52 1 l-1.64 3.52 c-0.04 0.08 -0.24 0.68 -0.32 0.84 c-0.16 0.48 -0.32 0.96 -0.32 1.48 c0 0.04 -0.04 0.2 0.08 0.2 c0.28 0 0.64 -0.28 0.8 -0.4 c0.08 -0.08 0.56 -0.44 0.64 -0.56 c0.04 0 0.16 -0.12 0.2 -0.16 c0.24 -0.24 1 -1 1.12 -1.08 c0.84 -0.92 1.64 -1.92 2.08 -3.08 l1.12 -2.96 s0.44 0.08 0.56 0.08 c0.64 0.12 1.76 0.52 1.76 1.32 c0 0.24 -0.08 0.48 -0.12 0.68 l-1.68 4.84 l0.72 -0.52 l1.56 -1.36 l1.08 -1.08 c0.2 -0.2 0.84 -0.92 0.92 -1 l1.24 -1.56 l0.08 0 c0.32 0 0.56 0.16 0.56 0.48 l0 0.08 l-1.08 1.36 l-1.24 1.36 l-1.24 1.2 l-1.52 1.28 l-1.56 1.16 c-0.04 0.04 -0.08 0.08 -0.08 0.12 l-1.6 3.92 l-1.52 3.24 l-0.92 1.72 l-0.88 1.32 c-0.96 1.48 -2.16 2.44 -3.76 3.08 c-0.72 0.24 -1.44 0.4 -2.2 0.4 c-1.36 0 -2.32 -0.6 -2.32 -2.04 c0 -2.84 2.92 -5.68 4.92 -7.24 c0.24 -0.2 1.08 -0.84 1.16 -0.88 l3.68 -2.36 l0.24 -0.6 l0.68 -2.04 l-1.08 1.04 c-0.04 0 -0.44 0.36 -0.6 0.48 c-0.72 0.56 -1.64 1.16 -2.56 1.16 c-1.2 0 -1.92 -1.16 -1.92 -2.24 c0 -0.64 0.6 -3 1.04 -3.44 l1.92 -3.72 c0.08 -0.12 0.24 -0.52 0.28 -0.56 z M26.371999999999996 34.519999999999996 l-0.04 0 l-0.52 0.32 l-1.08 0.8 l-1.84 1.56 l-1.56 1.48 c-0.12 0.12 -0.76 0.76 -0.92 0.96 c-0.76 0.76 -1.96 2.36 -1.96 3.36 c0 0.68 0.64 1.04 1.28 1.04 c1.76 0 4.2 -3.68 4.68 -5.16 l1.96 -4.4 c-0.04 0 -0.04 0.04 0 0.04 z M38.504 22.24 l0 -0.04 c0.32 0 0.56 -0.12 0.84 -0.12 c1.24 0 1.68 1.16 1.68 2.24 c0 0.08 0.04 0.28 -0.04 0.4 l-1.96 3.8 l0 0.04 l2.16 -2.08 l1.88 -1.6 c0.12 -0.08 1.04 -0.76 1.32 -0.96 c1.2 -0.84 2.76 -1.76 4.28 -1.76 c0.84 0 1.32 0.48 1.32 1.28 c0 0.76 -0.28 1.6 -0.6 2.28 l-2.24 4.6 l-0.52 1.36 c-0.16 0.44 -0.36 1.08 -0.36 1.6 c0 0.16 0 0.32 0.2 0.32 c0.68 0 1.4 -0.56 1.88 -0.96 c0.52 -0.32 2.48 -2.08 2.8 -2.56 l1.92 -2.12 l2.84 -3.52 l0.2 -0.2 c0.04 -0.04 0.16 -0.04 0.2 -0.04 c0.2 0 0.44 0.12 0.56 0.28 c0.08 0.16 0.24 0.52 0.24 0.52 l0 0.04 l-0.36 -0.04 l-2.64 3.36 l-2.96 3.32 l-1.48 1.44 c-0.08 0.08 -0.8 0.68 -1.04 0.84 c-0.96 0.76 -2.08 1.44 -3.36 1.44 c-1.72 0 -2.84 -1.28 -2.84 -2.96 c0 -0.76 0.24 -1.56 0.56 -2.24 l1.24 -2.96 c0.12 -0.28 0.16 -0.48 0.16 -0.76 c-0.16 0 -0.4 0.16 -0.56 0.28 c-0.08 0.04 -0.36 0.28 -0.4 0.28 c-0.08 0.08 -0.4 0.32 -0.48 0.4 c-0.28 0.2 -1 0.84 -1.08 0.88 l-2.52 2.44 l-3.36 3.64 c-0.4 0.44 -0.84 0.84 -1.44 0.84 c-1.2 0 -2.12 -0.88 -2.12 -2.04 c0 -1.4 0.96 -3.2 1.76 -4.4 l3.84 -5.92 z M38.984 28.6 c0.04 0 0.04 -0.04 0 -0.04 l0 0.04 z M68.076 16.96 l1.04 -1.8 l1.12 -1.64 c0.04 -0.08 0.64 -0.84 0.8 -1.04 c0.12 -0.12 0.6 -0.68 0.72 -0.8 c2 -2.16 4.12 -3.84 7.2 -3.84 c1.2 0.12 1.64 1.08 1.64 2.2 c0 2.44 -1.6 4.84 -3.08 6.64 c-0.2 0.24 -1 1.16 -1.08 1.28 l-1.64 1.64 l-2.96 2.68 l-3.16 2.6 c-0.04 0 -0.04 0.04 -0.04 0.08 l-0.52 1.84 l-0.6 2.88 c-0.16 0.76 -0.16 1.56 -0.16 2.36 c0.08 0.92 0.6 2.08 1.6 2.08 c0.92 0 1.84 -0.76 2.48 -1.28 c0.24 -0.16 0.88 -0.72 0.92 -0.76 l1.52 -1.48 l2 -2.2 l3.44 -4.44 c0 -0.04 0 -0.08 0.04 -0.12 c0.12 -0.04 0.2 -0.08 0.32 -0.08 c0.4 0 0.6 0.28 0.6 0.64 l-5.72 7.16 c-0.04 0.08 -0.8 0.84 -1.08 1.12 c-1.64 1.52 -4.2 3.44 -6.6 3.44 c-2.92 0 -3.6 -3.36 -3.6 -5.68 c0 -0.64 0.12 -1.24 0.28 -1.84 l0 -0.04 l-3.48 3 l-1.64 1.2 c-0.8 0.8 -2.96 1.76 -4 1.76 c-1.08 0 -1.4 -0.8 -1.4 -1.8 c0 -2.96 2.72 -6.24 4.72 -8.24 c1.88 -1.8 4.32 -3.72 7.04 -3.72 c0.28 0 0.56 0 0.8 0.04 c0.16 0.04 0.4 0.12 0.56 0.12 l0.56 -1.24 z M69.276 23.08 l0 0.04 l3.2 -2.88 l2.52 -2.56 c0.12 -0.12 0.96 -1.12 1.2 -1.4 c0.12 -0.16 0.84 -1.04 1 -1.24 c0.04 -0.12 0.52 -0.76 0.64 -0.92 c0.52 -0.8 1.08 -1.8 1.08 -2.76 c0 -0.4 -0.16 -1.16 -0.64 -1.16 c-1.68 0 -4.48 3.68 -5.28 4.96 l-1.04 1.72 c-0.08 0.16 -0.8 1.56 -1 2 c-0.16 0.32 -0.68 1.52 -0.76 1.72 l-0.92 2.36 l0 0.12 z M56.236000000000004 32.36 c0 0.24 0.12 0.36 0.32 0.36 c0.28 0 0.56 -0.24 0.76 -0.36 l2.92 -2.28 l2.76 -2.4 l1.12 -1.08 l1 -3.08 l0.36 -0.96 s-0.04 -0.04 -0.08 -0.04 l-0.08 0 c-1.52 0 -3.24 1.52 -4.24 2.48 c-0.2 0.2 -0.84 0.88 -0.88 0.96 l-1.28 1.48 c-0.08 0.08 -0.68 0.88 -0.84 1.16 c-0.08 0.16 -0.56 0.88 -0.68 1.04 c-0.04 0.08 -0.44 0.76 -0.52 0.92 c-0.32 0.52 -0.64 1.2 -0.64 1.8 z M69.236 23.16 c0.04 0 0.04 -0.04 0 -0.04 l0 0.04 z M82.36800000000001 20 c0 -1.4 1.52 -3 2.96 -3 c1 0 1.56 0.76 1.56 1.76 c0 1.4 -1.32 2.96 -2.8 2.96 c-0.96 0 -1.72 -0.72 -1.72 -1.72 z M77.608 31.4 c0 -1.24 0.44 -2.48 0.88 -3.64 c0.04 -0.12 0.24 -0.68 0.28 -0.72 l2 -4.32 c0.16 -0.36 0.4 -0.6 0.76 -0.6 c0.32 0 0.6 0.12 0.88 0.2 c0.68 0.24 1.68 0.64 1.68 1.52 c0 0.12 0 0.28 -0.08 0.36 c-0.56 0.92 -1.12 2.08 -1.6 3.08 c-0.08 0.2 -0.52 1.24 -0.6 1.48 c-0.28 0.72 -0.56 1.56 -0.56 2.32 c0 0.28 0.04 0.48 0.36 0.48 c0.64 0 1.32 -0.44 1.84 -0.72 c0.12 -0.08 0.56 -0.32 0.6 -0.36 c0.32 -0.24 1.28 -0.88 1.36 -0.96 l1.6 -1.2 l0.36 -0.36 l1.6 -1.76 l1.68 -2.12 c0.08 -0.08 0.24 -0.28 0.36 -0.32 c0.24 0 0.72 0.04 0.72 0.36 l0 0.28 l-0.92 1.24 l-1.36 1.68 l-1.6 1.72 c-0.12 0.12 -1 0.96 -1.28 1.2 c-1.64 1.64 -4.4 3.48 -6.76 3.48 c-1.44 0 -2.2 -0.92 -2.2 -2.32 z M103.152 14.239999999999998 l0.2 -1.08 l0.04 -0.04 c3.6 0 5.92 1.88 6.12 5.56 c0 1.28 -0.04 2.52 -0.44 3.76 l-0.56 2.12 l-3.92 10.64 l-0.6 2.2 l-0.28 1.24 c-0.04 0.16 -0.04 0.32 -0.04 0.52 c0 1 0.76 1.04 1.6 1.04 l0.4 0 c1.8 -0.2 3.48 -2.4 4.4 -3.68 c0.24 -0.36 0.96 -1.52 1.04 -1.64 l1.56 -2.68 l1.88 -3.8 l4.88 -11.32 c0.16 -0.32 0.64 -0.6 1 -0.6 c1.32 0 2.2 2.44 2.52 3.4 c0 0.08 0.04 0.08 0.04 0.2 l-0.84 3.08 l-4.2 11.76 c-0.36 1.08 -0.64 2.24 -0.64 3.4 c0 0.92 0.2 2.32 1.4 2.32 c2.32 0 4.2 -1.84 5.4 -3.6 c0.28 -0.4 1 -1.48 1.08 -1.56 l2.96 -4.96 l2.16 -4.2 l1.52 -3.48 c0.76 -1.8 1.28 -3.76 1.68 -5.6 c0.16 -0.36 0.4 -0.72 0.8 -0.72 c0.36 0 0.44 0.28 0.44 0.56 c0 0.16 0 0.28 -0.04 0.44 l-0.52 2.12 l-0.76 2.44 l-0.92 2.32 l-1.4 3.16 l-1.84 3.48 l-3.56 5.84 l-1.36 1.88 l-1.12 1.36 c-1.12 1.28 -2.88 2.8 -4.68 2.96 c-3.64 0 -5.76 -1.4 -5.76 -5.28 c0 -1.44 0.28 -2.92 0.68 -4.36 l0 -0.08 l-0.8 1.44 l-1.64 2.56 c-0.08 0.12 -0.84 1.16 -1.12 1.48 c-1.2 1.56 -3 3.52 -5.08 3.8 c-3 0 -5.2 -1.6 -5.2 -4.76 c0 -1.16 0.24 -2.32 0.6 -3.4 l0.72 -2.2 l2.96 -7.64 l0.72 -2.24 c0.04 -0.16 0.36 -1.36 0.44 -1.68 c0.04 -0.28 0.32 -1.72 0.36 -2 c0 -0.16 0.08 -0.84 0.08 -1 c0 -1.92 -0.04 -3.32 -2.36 -3.48 z M113.512 33.36 l0 -0.04 c-0.04 0 -0.04 0.04 0 0.04 z M141.88400000000001 22.84 c0.24 -0.44 0.56 -1.28 1.2 -1.28 c0.28 0 0.52 0.16 0.8 0.32 c0.48 0.32 1.4 0.76 1.4 1.52 c0 0.28 -0.16 0.52 -0.28 0.72 l-1.44 3.04 l-1.48 3.68 l-0.56 1.72 l-0.4 1.44 c-0.08 0.4 -0.16 0.92 -0.16 1.4 c0 0.08 0 0.32 0.12 0.32 c0.36 0 0.76 -0.44 0.96 -0.64 l0.56 -0.56 c0.16 -0.2 0.72 -0.8 0.8 -0.88 l2.32 -2.8 l5.16 -6.96 c0.08 -0.08 0.16 -0.24 0.32 -0.24 c0.32 0 0.64 0.16 0.64 0.56 l0 0.08 l-1.12 1.64 l-4.88 6.52 l-1.88 2.16 c-0.08 0.04 -0.88 0.88 -1.16 1.16 c-0.52 0.52 -1.76 1.64 -2.56 1.64 c-1.92 0 -2.48 -1.68 -2.48 -3.32 c0 -1.48 0.4 -2.92 0.92 -4.32 c-0.04 0 -0.08 0.04 -0.08 0.04 c-0.12 0.08 -0.52 0.44 -0.6 0.52 l-1.76 1.52 c-0.12 0.08 -0.92 0.68 -1.16 0.84 c-0.76 0.56 -1.76 1.2 -2.76 1.2 c-1.4 0 -2.08 -1.12 -2.08 -2.4 c0 -1.04 0.36 -2.04 0.8 -2.96 c1.44 -3.12 4.84 -6.8 8.6 -6.8 c0.72 0 1.32 0.24 1.84 0.72 c0.08 0.04 0.36 0.4 0.4 0.4 z M133.284 31.68 c0 0.24 0.2 0.32 0.4 0.32 c0.4 0 0.8 -0.28 1.12 -0.48 c0.16 -0.12 0.72 -0.48 0.76 -0.52 l1.52 -1.2 l2.48 -2.36 l0.92 -1.96 c0.16 -0.32 0.28 -0.72 0.28 -1.08 c0 -0.28 -0.12 -0.4 -0.4 -0.4 c-0.48 0 -1.04 0.28 -1.48 0.52 c-2.2 1.2 -4.36 3.56 -5.28 5.92 c-0.16 0.36 -0.32 0.84 -0.32 1.24 z M138.684 29.759999999999998 l0 -0.04 l0 0.04 z M152.376 22.24 l0 -0.04 c0.32 0 0.56 -0.12 0.84 -0.12 c1.24 0 1.68 1.16 1.68 2.24 c0 0.08 0.04 0.28 -0.04 0.4 l-1.96 3.8 l0 0.04 l2.16 -2.08 l1.88 -1.6 c0.12 -0.08 1.04 -0.76 1.32 -0.96 c1.2 -0.84 2.76 -1.76 4.28 -1.76 c0.84 0 1.32 0.48 1.32 1.28 c0 0.76 -0.28 1.6 -0.6 2.28 l-2.24 4.6 l-0.52 1.36 c-0.16 0.44 -0.36 1.08 -0.36 1.6 c0 0.16 0 0.32 0.2 0.32 c0.68 0 1.4 -0.56 1.88 -0.96 c0.52 -0.32 2.48 -2.08 2.8 -2.56 l1.92 -2.12 l2.84 -3.52 l0.2 -0.2 c0.04 -0.04 0.16 -0.04 0.2 -0.04 c0.2 0 0.44 0.12 0.56 0.28 c0.08 0.16 0.24 0.52 0.24 0.52 l0 0.04 l-0.36 -0.04 l-2.64 3.36 l-2.96 3.32 l-1.48 1.44 c-0.08 0.08 -0.8 0.68 -1.04 0.84 c-0.96 0.76 -2.08 1.44 -3.36 1.44 c-1.72 0 -2.84 -1.28 -2.84 -2.96 c0 -0.76 0.24 -1.56 0.56 -2.24 l1.24 -2.96 c0.12 -0.28 0.16 -0.48 0.16 -0.76 c-0.16 0 -0.4 0.16 -0.56 0.28 c-0.08 0.04 -0.36 0.28 -0.4 0.28 c-0.08 0.08 -0.4 0.32 -0.48 0.4 c-0.28 0.2 -1 0.84 -1.08 0.88 l-2.52 2.44 l-3.36 3.64 c-0.4 0.44 -0.84 0.84 -1.44 0.84 c-1.2 0 -2.12 -0.88 -2.12 -2.04 c0 -1.4 0.96 -3.2 1.76 -4.4 l3.84 -5.92 z M152.856 28.6 c0.04 0 0.04 -0.04 0 -0.04 l0 0.04 z M166.988 30.2 c0 -3.6 5.72 -8.56 9.12 -8.56 c1.88 0 2.64 1.44 2.64 3.16 c0 1.64 -0.48 3.2 -0.96 4.72 l0 0.04 s0.8 -0.64 1.12 -0.88 c0.32 -0.28 1.36 -1.2 1.44 -1.28 l1.32 -1.32 c0.76 -0.76 1.52 -1.68 2.12 -2.56 c0.44 0 0.76 0.04 0.76 0.56 l-1.28 1.6 c-0.12 0.16 -2.28 2.4 -2.44 2.52 l-1.56 1.36 l-2.08 1.56 l-2.28 5.48 l-1.64 3.28 l-1 1.72 c-0.08 0.08 -0.52 0.72 -0.64 0.92 c-1.56 2.08 -3.52 3.52 -6.24 3.52 c-1.48 0 -2.56 -0.6 -2.56 -2.2 c0 -2.88 2.72 -5.72 4.72 -7.36 c0.68 -0.68 1.56 -1.28 2.36 -1.8 l3.52 -2.2 l1.2 -3 c-1.16 0.88 -4.16 2.92 -5.68 2.92 c-1.28 0 -1.96 -1.04 -1.96 -2.2 z M169.78799999999998 30.4 c0 0.24 0.16 0.28 0.36 0.28 c0.52 0 1.76 -0.76 2.16 -1.16 l1.8 -1.44 l1.52 -1.36 c0 -0.04 0.24 -0.68 0.32 -0.92 c0.16 -0.52 0.28 -1.08 0.28 -1.64 c0 -0.28 0 -0.56 -0.32 -0.68 l-0.12 0 c-0.76 0 -1.68 0.8 -2.16 1.28 c-1.16 1.04 -3.84 3.96 -3.84 5.64 z M177.748 29.560000000000002 l0 0 z M167.38799999999998 37.84 c-1.52 1.32 -3.52 3.6 -3.52 5.8 c0 0.64 0.24 1.16 0.96 1.16 c1 0 1.96 -0.68 2.6 -1.32 c0.64 -0.8 1.44 -1.64 1.96 -2.56 l1.36 -2.4 l2.12 -4.64 l-2.72 1.76 c-0.12 0.08 -1.12 0.84 -1.4 1.04 c-0.2 0.16 -1.16 0.96 -1.36 1.16 z"></path></g>
			</g>
		</svg>
	